<?xml version="1.0" encoding="utf-8" ?>
<!DOCTYPE svg PUBLIC "-//W3C//DTD SVG 1.1//EN" "http://www.w3.org/Graphics/SVG/1.1/DTD/svg11.dtd">
<svg height="1028" version="1.1" width="949" xmlns="http://www.w3.org/2000/svg">
    <rect fill="#ffffc8" height="144" stroke="#ffffc8" stroke-width="1" width="161" x="334" y="798"/>
    <rect fill="none" height="144" stroke="#000000" stroke-width="1" width="161" x="334" y="798"/>
    <text font-family="Dialog" font-size="12" x="376" y="812">
        public Faction
    </text>
    <rect fill="#000000" height="1" stroke="#000000" stroke-width="1" width="161" x="334" y="822"/>
    <text font-family="Dialog" font-size="12" x="338" y="837">
        private int satisfaction
    </text>
    <text font-family="Dialog" font-size="12" x="338" y="854">
        private int partisan
    </text>
    <text font-family="Dialog" font-size="12" x="338" y="871">
        private String title
    </text>
    <rect fill="#000000" height="1" stroke="#000000" stroke-width="1" width="161" x="334" y="898"/>
    <text font-family="Dialog" font-size="12" x="338" y="913">
        public void takeCorruption()
    </text>
    <rect fill="#ffffc8" height="192" stroke="#ffffc8" stroke-width="1" width="168" x="318" y="398"/>
    <rect fill="none" height="192" stroke="#000000" stroke-width="1" width="168" x="318" y="398"/>
    <text font-family="Dialog" font-size="12" x="367" y="412">
        public Island
    </text>
    <rect fill="#000000" height="1" stroke="#000000" stroke-width="1" width="168" x="318" y="422"/>
    <text font-family="Dialog" font-size="12" x="322" y="437">
        private int agriculture
    </text>
    <text font-family="Dialog" font-size="12" x="322" y="454">
        private int industrie
    </text>
    <text font-family="Dialog" font-size="12" x="322" y="471">
        private int treasury
    </text>
    <text font-family="Dialog" font-size="12" x="322" y="488">
        private int food
    </text>
    <rect fill="#000000" height="1" stroke="#000000" stroke-width="1" width="168" x="318" y="533"/>
    <rect fill="#ffffc8" height="136" stroke="#ffffc8" stroke-width="1" width="128" x="334" y="206"/>
    <rect fill="none" height="136" stroke="#000000" stroke-width="1" width="128" x="334" y="206"/>
    <text font-family="Dialog" font-size="12" x="349" y="220">
        public GameState
    </text>
    <rect fill="#000000" height="1" stroke="#000000" stroke-width="1" width="128" x="334" y="230"/>
    <text font-family="Dialog" font-size="12" x="338" y="245">
        private int turn
    </text>
    <rect fill="#000000" height="1" stroke="#000000" stroke-width="1" width="128" x="334" y="287"/>
    <rect fill="#ffffc8" height="136" stroke="#ffffc8" stroke-width="1" width="120" x="198" y="206"/>
    <rect fill="none" height="136" stroke="#000000" stroke-width="1" width="120" x="198" y="206"/>
    <text font-family="Dialog" font-size="12" x="211" y="220">
        public MenuState
    </text>
    <rect fill="#000000" height="1" stroke="#000000" stroke-width="1" width="120" x="198" y="230"/>
    <rect fill="#000000" height="1" stroke="#000000" stroke-width="1" width="120" x="198" y="285"/>
    <rect fill="#ffffc8" height="129" stroke="#ffffc8" stroke-width="1" width="154" x="246" y="14"/>
    <rect fill="none" height="129" stroke="#000000" stroke-width="1" width="154" x="246" y="14"/>
    <text font-family="Dialog" font-size="12" x="291" y="48">
        public State
    </text>
    <text font-family="Dialog" font-size="12" x="287" y="29">
        &lt;&lt;abstract&gt;&gt;
    </text>
    <rect fill="#000000" height="1" stroke="#000000" stroke-width="1" width="154" x="246" y="58"/>
    <text font-family="Dialog" font-size="12" x="250" y="73">
        private int id
    </text>
    <rect fill="#000000" height="1" stroke="#000000" stroke-width="1" width="154" x="246" y="83"/>
    <text font-family="Dialog" font-size="12" x="250" y="98">
        public void run()
    </text>
    <text font-family="Dialog" font-size="12" x="250" y="115">
        private void update()
    </text>
    <text font-family="Dialog" font-size="12" x="250" y="132">
        private void com.presidente.display()
    </text>
    <polyline fill="none" points="286,206 286,142" stroke="#000000" stroke-width="1"/>
    <polygon fill="#ffffff" points="286,142 293,154 279,154" stroke="#ffffff" stroke-width="1"/>
    <polygon fill="none" points="286,142 293,154 279,154" stroke="#000000" stroke-width="1"/>
    <text font-family="Dialog" font-size="12" x="203" y="187">
        &lt;&lt;extends&gt;&gt;
    </text>
    <polyline fill="none" points="374,206 374,142" stroke="#000000" stroke-width="1"/>
    <polygon fill="#ffffff" points="374,142 381,154 367,154" stroke="#ffffff" stroke-width="1"/>
    <polygon fill="none" points="374,142 381,154 367,154" stroke="#000000" stroke-width="1"/>
    <text font-family="Dialog" font-size="12" x="385" y="188">
        &lt;&lt;extends&gt;&gt;
    </text>
    <rect fill="#ffffc8" height="120" stroke="#ffffc8" stroke-width="1" width="182" x="14" y="414"/>
    <rect fill="none" height="120" stroke="#000000" stroke-width="1" width="182" x="14" y="414"/>
    <text font-family="Dialog" font-size="12" x="47" y="428">
        public GameDifficulty
    </text>
    <rect fill="#000000" height="1" stroke="#000000" stroke-width="1" width="182" x="14" y="438"/>
    <text font-family="Dialog" font-size="12" x="18" y="453">
        private int loseRatio
    </text>
    <text font-family="Dialog" font-size="12" x="18" y="470">
        private int satisfactionThreshold
    </text>
    <rect fill="#000000" height="1" stroke="#000000" stroke-width="1" width="182" x="14" y="504"/>
    <rect fill="#ffffc8" height="88" stroke="#ffffc8" stroke-width="1" width="143" x="622" y="622"/>
    <rect fill="none" height="88" stroke="#000000" stroke-width="1" width="143" x="622" y="622"/>
    <text font-family="Dialog" font-size="12" x="660" y="636">
        public Event
    </text>
    <rect fill="#000000" height="1" stroke="#000000" stroke-width="1" width="143" x="622" y="646"/>
    <text font-family="Dialog" font-size="12" x="626" y="661">
        private String description
    </text>
    <rect fill="#000000" height="1" stroke="#000000" stroke-width="1" width="143" x="622" y="679"/>
    <rect fill="#ffffc8" height="88" stroke="#ffffc8" stroke-width="1" width="121" x="638" y="758"/>
    <rect fill="none" height="88" stroke="#000000" stroke-width="1" width="121" x="638" y="758"/>
    <text font-family="Dialog" font-size="12" x="646" y="772">
        public EventChoice
    </text>
    <rect fill="#000000" height="1" stroke="#000000" stroke-width="1" width="121" x="638" y="782"/>
    <text font-family="Dialog" font-size="12" x="642" y="797">
        private int description
    </text>
    <rect fill="#000000" height="1" stroke="#000000" stroke-width="1" width="121" x="638" y="815"/>
    <polyline fill="none" points="694,709 694,758" stroke="#000000" stroke-width="1"/>
    <polygon fill="#000000" points="694,709 699,719 694,729 689,719" stroke="#000000" stroke-width="1"/>
    <polygon fill="none" points="694,709 699,719 694,729 689,719" stroke="#000000" stroke-width="1"/>
    <line fill="#000000" stroke="#000000" stroke-width="1" x1="687" x2="694" y1="746" y2="758"/>
    <line fill="#000000" stroke="#000000" stroke-width="1" x1="701" x2="694" y1="746" y2="758"/>
    <text font-family="Dialog" font-size="12" x="703" y="726">
        1..4
    </text>
    <text font-family="Dialog" font-size="12" x="606" y="724">
        private choices
    </text>
    <rect fill="#ffffc8" height="96" stroke="#ffffc8" stroke-width="1" width="172" x="614" y="462"/>
    <rect fill="none" height="96" stroke="#000000" stroke-width="1" width="172" x="614" y="462"/>
    <text font-family="Dialog" font-size="12" x="660" y="476">
        public Season
    </text>
    <rect fill="#000000" height="1" stroke="#000000" stroke-width="1" width="172" x="614" y="486"/>
    <text font-family="Dialog" font-size="12" x="618" y="501">
        private String name
    </text>
    <rect fill="#000000" height="1" stroke="#000000" stroke-width="1" width="172" x="614" y="521"/>
    <text font-family="Dialog" font-size="12" x="618" y="536">
        public void getRandomEvent()
    </text>
    <polyline fill="none" points="694,557 694,622" stroke="#000000" stroke-width="1"/>
    <polygon fill="#000000" points="694,557 699,567 694,577 689,567" stroke="#000000" stroke-width="1"/>
    <polygon fill="none" points="694,557 699,567 694,577 689,567" stroke="#000000" stroke-width="1"/>
    <line fill="#000000" stroke="#000000" stroke-width="1" x1="687" x2="694" y1="610" y2="622"/>
    <line fill="#000000" stroke="#000000" stroke-width="1" x1="701" x2="694" y1="610" y2="622"/>
    <text font-family="Dialog" font-size="12" x="612" y="574">
        private events
    </text>
    <polyline fill="none" points="318,477 195,477" stroke="#000000" stroke-width="1"/>
    <polygon fill="#000000" points="318,477 308,482 298,477 308,472" stroke="#000000" stroke-width="1"/>
    <polygon fill="none" points="318,477 308,482 298,477 308,472" stroke="#000000" stroke-width="1"/>
    <line fill="#000000" stroke="#000000" stroke-width="1" x1="207" x2="195" y1="470" y2="477"/>
    <line fill="#000000" stroke="#000000" stroke-width="1" x1="207" x2="195" y1="484" y2="477"/>
    <text font-family="Dialog" font-size="12" x="300" y="467">
        1
    </text>
    <text font-family="Dialog" font-size="12" x="235" y="492">
        private difficulty
    </text>
    <polyline fill="none" points="398,341 398,398" stroke="#000000" stroke-width="1"/>
    <polygon fill="#000000" points="398,341 403,351 398,361 393,351" stroke="#000000" stroke-width="1"/>
    <polygon fill="none" points="398,341 403,351 398,361 393,351" stroke="#000000" stroke-width="1"/>
    <line fill="#000000" stroke="#000000" stroke-width="1" x1="391" x2="398" y1="386" y2="398"/>
    <line fill="#000000" stroke="#000000" stroke-width="1" x1="405" x2="398" y1="386" y2="398"/>
    <text font-family="Dialog" font-size="12" x="413" y="358">
        1
    </text>
    <text font-family="Dialog" font-size="12" x="319" y="356">
        private island
    </text>
    <rect fill="#ffffc8" height="120" stroke="#ffffc8" stroke-width="1" width="182" x="606" y="894"/>
    <rect fill="none" height="120" stroke="#000000" stroke-width="1" width="182" x="606" y="894"/>
    <text font-family="Dialog" font-size="12" x="664" y="908">
        public Effect
    </text>
    <rect fill="#000000" height="1" stroke="#000000" stroke-width="1" width="182" x="606" y="918"/>
    <text font-family="Dialog" font-size="12" x="610" y="933">
        private String description
    </text>
    <rect fill="#000000" height="1" stroke="#000000" stroke-width="1" width="182" x="606" y="965"/>
    <text font-family="Dialog" font-size="12" x="610" y="980">
        public applyEffect(Island island)
    </text>
    <polyline fill="none" points="694,845 694,894" stroke="#000000" stroke-width="1"/>
    <polygon fill="#000000" points="694,845 699,855 694,865 689,855" stroke="#000000" stroke-width="1"/>
    <polygon fill="none" points="694,845 699,855 694,865 689,855" stroke="#000000" stroke-width="1"/>
    <line fill="#000000" stroke="#000000" stroke-width="1" x1="687" x2="694" y1="882" y2="894"/>
    <line fill="#000000" stroke="#000000" stroke-width="1" x1="701" x2="694" y1="882" y2="894"/>
    <text font-family="Dialog" font-size="12" x="703" y="864">
        1..4
    </text>
    <text font-family="Dialog" font-size="12" x="611" y="862">
        private effects
    </text>
    <polyline fill="none" points="622,678 566,678 566,630 622,630" stroke="#000000" stroke-width="1"/>
    <polygon fill="#ffffff" points="622,678 612,683 602,678 612,673" stroke="#ffffff" stroke-width="1"/>
    <polygon fill="none" points="622,678 612,683 602,678 612,673" stroke="#000000" stroke-width="1"/>
    <line fill="#000000" stroke="#000000" stroke-width="1" x1="610" x2="622" y1="637" y2="630"/>
    <line fill="#000000" stroke="#000000" stroke-width="1" x1="610" x2="622" y1="623" y2="630"/>
    <text font-family="Dialog" font-size="12" x="603" y="673">
        1
    </text>
    <text font-family="Dialog" font-size="12" x="524" y="699">
        private nextEvent
    </text>
    <rect fill="#ffffc8" height="96" stroke="#ffffc8" stroke-width="1" width="224" x="294" y="646"/>
    <rect fill="none" height="96" stroke="#000000" stroke-width="1" width="224" x="294" y="646"/>
    <text font-family="Dialog" font-size="12" x="358" y="660">
        public Population
    </text>
    <rect fill="#000000" height="1" stroke="#000000" stroke-width="1" width="224" x="294" y="670"/>
    <rect fill="#000000" height="1" stroke="#000000" stroke-width="1" width="224" x="294" y="695"/>
    <text font-family="Dialog" font-size="12" x="298" y="710">
        public void getTotalPopulation()
    </text>
    <polyline fill="none" points="406,741 406,798" stroke="#000000" stroke-width="1"/>
    <polygon fill="#000000" points="406,741 411,751 406,761 401,751" stroke="#000000" stroke-width="1"/>
    <polygon fill="none" points="406,741 411,751 406,761 401,751" stroke="#000000" stroke-width="1"/>
    <text font-family="Dialog" font-size="12" x="417" y="756">
        0..*
    </text>
    <text font-family="Dialog" font-size="12" x="311" y="756">
        private factions
    </text>
    <text font-family="Dialog" font-size="12" x="419" y="792">
        1
    </text>
    <text font-family="Dialog" font-size="12" x="302" y="793">
        private population
    </text>
    <polyline fill="none" points="406,589 406,646" stroke="#000000" stroke-width="1"/>
    <polygon fill="#000000" points="406,589 411,599 406,609 401,599" stroke="#000000" stroke-width="1"/>
    <polygon fill="none" points="406,589 411,599 406,609 401,599" stroke="#000000" stroke-width="1"/>
    <text font-family="Dialog" font-size="12" x="417" y="607">
        1..*
    </text>
    <text font-family="Dialog" font-size="12" x="301" y="605">
        private population
    </text>
    <text font-family="Dialog" font-size="12" x="420" y="636">
        1
    </text>
    <text font-family="Dialog" font-size="12" x="326" y="641">
        private island
    </text>
    <polyline fill="none" points="485,502 614,502" stroke="#000000" stroke-width="1"/>
    <polygon fill="#ffffff" points="485,502 495,497 505,502 495,507" stroke="#ffffff" stroke-width="1"/>
    <polygon fill="none" points="485,502 495,497 505,502 495,507" stroke="#000000" stroke-width="1"/>
    <line fill="#000000" stroke="#000000" stroke-width="1" x1="602" x2="614" y1="509" y2="502"/>
    <line fill="#000000" stroke="#000000" stroke-width="1" x1="602" x2="614" y1="495" y2="502"/>
    <text font-family="Dialog" font-size="12" x="496" y="497">
        4
    </text>
    <text font-family="Dialog" font-size="12" x="491" y="517">
        private seasons
    </text>
</svg>
